<svg width="159" height="49" viewBox="0 0 159 49" fill="none" xmlns="http://www.w3.org/2000/svg">
<path fill-rule="evenodd" clip-rule="evenodd" d="M33.9788 8C42.8268 8 50 15.1668 50 24C50 32.8332 42.8268 40 33.9788 40C33.3079 40 32.6424 39.9564 31.9932 39.8747H18.1104C16.8612 39.8747 15.8412 38.8564 15.8412 37.6093C15.8412 36.3622 16.8612 35.3383 18.1104 35.3383H18.8905C19.9815 35.3383 20.8979 34.565 21.1161 33.5412C21.1488 33.3887 21.1652 33.2308 21.1652 33.0728C21.1652 32.2886 20.7615 31.5916 20.1451 31.1831L20.1233 31.1668H20.1178L20.1015 31.1559L20.0851 31.145L20.0687 31.1341L20.0633 31.1287L20.0469 31.1232L20.0305 31.1123L20.0196 31.1014H20.0142L19.9978 31.0905L19.976 31.0796L19.9596 31.0742L19.9433 31.0633L19.9378 31.0579L19.9214 31.0524L19.9051 31.0415H19.8996L19.8942 31.0361L19.856 31.0197L19.8505 31.0143L19.8287 31.0089L19.8123 31.0034V30.998L19.7742 30.9816L19.7578 30.9762L19.736 30.9653H19.7305L19.6923 30.9489H19.6869L19.6814 30.9435L19.6487 30.9326H19.6432H19.6378L19.5996 30.9163L19.5614 30.9054H19.556L19.5505 30.8999L19.5123 30.889C19.316 30.8346 19.1087 30.8019 18.8905 30.8019H18.6286H13.07H13.0373C11.7881 30.8019 10.7681 29.7835 10.7681 28.5364C10.7681 27.2893 11.7881 26.2655 13.0373 26.2655H16.3266C16.9976 26.2655 17.6031 25.9714 18.0231 25.5031C18.3832 25.1055 18.6014 24.5773 18.6014 24C18.6014 23.4227 18.3777 22.8945 18.0231 22.4915C17.6031 22.0286 16.9976 21.7345 16.3266 21.7345H10.5008H10.4735C9.22431 21.7345 8.19878 20.7107 8.19878 19.4636C8.19878 18.2165 9.22431 17.1981 10.4735 17.1981H19.4687V17.1926C20.6851 17.1545 21.6725 16.1525 21.6725 14.9272C21.6725 14.595 21.5961 14.2845 21.4707 13.9959C21.1106 13.2117 20.3142 12.6617 19.3978 12.6617H2.26926C1.02007 12.6617 0 11.6378 0 10.3907C0 9.14364 1.02007 8.12526 2.26926 8.12526H31.895C31.9223 8.12526 31.9496 8.12526 31.9823 8.12526C32.6315 8.04357 33.3024 8 33.9788 8ZM3.84028 17.1981H4.99127C6.24045 17.1981 7.26053 18.2219 7.26053 19.469C7.26053 20.7161 6.24045 21.7345 4.99127 21.7345H3.84028C2.5911 21.7345 1.56557 20.7161 1.56557 19.469C1.56557 18.2219 2.5911 17.1981 3.84028 17.1981ZM18.1104 26.2546C18.094 26.1348 18.0777 26.0095 18.0613 25.8897C18.0777 26.0095 18.094 26.1348 18.1104 26.2546ZM18.0613 25.8734C18.0504 25.7536 18.034 25.6338 18.0231 25.514C18.034 25.6338 18.0504 25.7536 18.0613 25.8734ZM21.9234 13.4568C22.1634 13.1845 22.4144 12.9176 22.6762 12.6617C22.4144 12.9176 22.1634 13.1845 21.9234 13.4568ZM35.1516 14.4806C36.9245 14.693 38.5501 15.3955 39.892 16.4411L36.8481 19.4799C36.3354 19.1532 35.7626 18.9135 35.1516 18.7774V14.4806ZM41.5503 18.0967C42.5976 19.4364 43.2959 21.0592 43.5141 22.8291H39.2047C39.0683 22.2192 38.8283 21.6474 38.5064 21.1355L41.5503 18.0967ZM43.5141 25.1709C43.2959 26.9408 42.5976 28.5637 41.5503 29.9033L38.5064 26.8645C38.8283 26.3526 39.0683 25.7808 39.2047 25.1709H43.5141ZM39.892 31.5589C38.5501 32.6045 36.9245 33.307 35.1516 33.5194V29.2226C35.7626 29.0865 36.3299 28.8468 36.8481 28.5201L39.892 31.5589ZM32.806 33.5194C31.0277 33.307 29.4021 32.6045 28.0657 31.5589L31.1095 28.5201C31.6223 28.8468 32.1951 29.0865 32.806 29.2226V33.5194ZM26.4074 29.9033C25.3546 28.5637 24.6563 26.9408 24.4381 25.1709H28.7475C28.8839 25.7808 29.1239 26.3526 29.4512 26.8645L26.4074 29.9033ZM24.4381 22.8291C24.6563 21.0592 25.3546 19.4364 26.4074 18.0967L29.4512 21.1355C29.1239 21.6474 28.8839 22.2192 28.7475 22.8291H24.4381ZM28.0657 16.4411C29.4021 15.3955 31.0277 14.693 32.806 14.4806V18.7774C32.1951 18.9135 31.6223 19.1532 31.1095 19.4799L28.0657 16.4411ZM33.9788 20.03C36.1717 20.03 37.95 21.8108 37.95 24C37.95 26.1892 36.1717 27.97 33.9788 27.97C31.7805 27.97 30.0022 26.1892 30.0022 24C30.0022 21.8108 31.7805 20.03 33.9788 20.03ZM33.9788 12.7651C40.192 12.7651 45.2324 17.7917 45.2324 24C45.2324 30.2083 40.192 35.2349 33.9788 35.2349C27.7602 35.2349 22.7198 30.2083 22.7198 24C22.7198 17.7917 27.7602 12.7651 33.9788 12.7651Z" fill="#414141"/>
<path d="M104.849 30.8167C105.147 29.7529 106.284 28.8906 107.388 28.8906H149.388C150.493 28.8906 151.147 29.7529 150.849 30.8167L146.539 46.225C146.241 47.2887 145.104 48.1511 144 48.1511H102C100.895 48.1511 100.241 47.2887 100.539 46.225L104.849 30.8167Z" fill="#009432"/>
<path d="M112.387 1.92604C112.684 0.862319 113.821 0 114.925 0H156.925C158.03 0 158.684 0.862319 158.387 1.92604L154.076 17.3344C153.778 18.3981 152.641 19.2604 151.537 19.2604H109.537C108.432 19.2604 107.778 18.3981 108.076 17.3344L112.387 1.92604Z" fill="#009432"/>
<path d="M54.8494 30.8167C55.147 29.7529 56.2837 28.8906 57.3883 28.8906H99.3883C100.493 28.8906 101.147 29.7529 100.849 30.8167L96.5386 46.225C96.241 47.2887 95.1044 48.1511 93.9998 48.1511H51.9998C50.8952 48.1511 50.241 47.2887 50.5386 46.225L54.8494 30.8167Z" fill="#009432"/>
<path d="M62.9319 1.92604C63.2295 0.862319 64.3662 0 65.4708 0H107.471C108.575 0 109.23 0.862319 108.932 1.92604L104.621 17.3344C104.324 18.3981 103.187 19.2604 102.082 19.2604H60.0823C58.9777 19.2604 58.3236 18.3981 58.6212 17.3344L62.9319 1.92604Z" fill="#009432"/>
</svg>
