<svg width="445" height="157" viewBox="0 0 445 157" fill="none" xmlns="http://www.w3.org/2000/svg">
<path fill-rule="evenodd" clip-rule="evenodd" d="M111.948 74.0239C113.668 74.0239 114.65 73.1635 114.896 71.4425L119.255 43.8457C119.419 42.9033 119.501 41.9199 119.501 40.8955C119.501 37.7404 118.559 35.3024 116.676 33.5814C114.834 31.8605 112.112 31 108.51 31H66.2036C63.8294 31 61.7826 31.2868 60.0634 31.8605C58.3441 32.4341 56.8909 33.2741 55.7038 34.3805C54.5576 35.4868 53.6366 36.839 52.9407 38.437C52.2448 40.035 51.7331 41.8379 51.4056 43.8457L47.0461 71.4425C46.8005 73.1635 47.5373 74.0239 49.2566 74.0239H55.5196C57.2389 74.0239 58.2213 73.1635 58.4669 71.4425L60.002 61.9158H105.01L103.475 71.4425C103.229 73.1635 103.966 74.0239 105.685 74.0239H111.948ZM62.5809 45.6281C63.0312 42.596 64.7709 41.0799 67.8001 41.0799H103.72C106.34 41.0799 107.65 42.2682 107.65 44.6447V45.1364C107.65 45.2594 107.63 45.4233 107.589 45.6281L106.606 51.8359H61.5984L62.5809 45.6281Z" fill="white"/>
<path fill-rule="evenodd" clip-rule="evenodd" d="M185.247 74.0239C186.967 74.0239 187.949 73.1635 188.195 71.4425L189.177 65.1118C189.259 64.6611 189.32 64.2104 189.361 63.7597C189.402 63.3089 189.423 62.8787 189.423 62.4689C189.423 60.5431 189.013 58.986 188.195 57.7978C187.376 56.6095 186.189 55.7285 184.633 55.1549C186.926 54.4583 188.666 53.311 189.853 51.713C191.081 50.0739 191.92 47.8203 192.37 44.952L192.861 42.0018C192.984 41.1004 193.046 40.2399 193.046 39.4204C193.046 36.3473 192.022 34.1756 189.975 32.9053C187.97 31.6351 185.145 31 181.502 31H131.152C129.433 31 128.45 31.8605 128.205 33.5814L122.187 71.4425C121.942 73.1635 122.678 74.0239 124.398 74.0239H130.661C132.38 74.0239 133.362 73.1635 133.608 71.4425L135.389 60.0719H173.213C176.324 60.0719 177.879 61.3421 177.879 63.8826V64.3743C177.879 64.5382 177.859 64.7226 177.818 64.9274L176.774 71.4425C176.528 73.1635 177.265 74.0239 178.984 74.0239H185.247ZM176.59 49.992H136.985L138.397 41.0799H178.002C180.09 41.0799 181.134 41.8584 181.134 43.4155C181.134 43.7433 181.113 43.9891 181.072 44.153L180.642 46.9189C180.356 48.9676 179.005 49.992 176.59 49.992Z" fill="white"/>
<path d="M198.308 43.8457C198.636 41.8379 199.148 40.035 199.843 38.437C200.539 36.839 201.46 35.4868 202.607 34.3805C203.794 33.2741 205.247 32.4341 206.966 31.8605C208.685 31.2868 210.732 31 213.106 31H280.795C283.246 31 285.152 31.2271 286.514 31.6812C287.967 32.1353 289.419 33.0435 290.872 34.4058L325.596 66.2837L370.397 34.4058C371.395 33.77 372.258 33.2251 372.984 32.771C373.801 32.3169 374.573 31.9536 375.299 31.6812C376.025 31.4087 376.797 31.2271 377.614 31.1362C378.522 31.0454 379.611 31 380.882 31H404.031C404.848 31 405.484 31.2725 405.938 31.8174C406.483 32.2715 406.8 32.8618 406.891 33.5884C407.073 34.2241 407.027 34.9053 406.755 35.6318C406.483 36.3584 405.938 36.9941 405.121 37.5391L346.294 78.4081L392.865 119.822C393.501 120.367 393.864 121.048 393.955 121.866C394.136 122.592 394.091 123.319 393.819 124.045C393.546 124.681 393.138 125.226 392.593 125.68C392.048 126.134 391.367 126.361 390.55 126.361H370.124C367.673 126.361 365.721 126.134 364.269 125.68C362.907 125.226 361.455 124.318 359.911 122.955L324.506 90.5326L278.752 122.955C276.846 124.318 275.257 125.226 273.986 125.68C272.715 126.134 270.854 126.361 268.403 126.361H199.546C195.944 126.361 193.201 125.501 191.318 123.78C189.476 122.059 188.555 119.621 188.555 116.466C188.555 115.441 188.637 114.458 188.801 113.515L191.503 96.183C191.83 94.1752 192.342 92.3723 193.038 90.7743C193.734 89.1763 194.655 87.8241 195.801 86.7177C196.988 85.6114 198.441 84.7714 200.16 84.1978C201.88 83.6241 203.926 83.3373 206.301 83.3373H255.803C257.522 83.3373 258.259 84.1978 258.013 85.9187L257.215 90.8357C256.969 92.5567 255.966 93.4172 254.206 93.4172H207.897C204.868 93.4172 203.128 94.9333 202.678 97.9654L202.309 100.117H242.459C244.179 100.117 244.895 100.977 244.608 102.698L243.933 107C243.687 108.721 242.705 109.582 240.986 109.582H200.836L200.467 111.733C200.426 111.938 200.406 112.122 200.406 112.286V112.778C200.406 115.114 201.695 116.281 204.274 116.281H249.275L303.944 78.4081L261.968 41.0249C261.744 41.0616 261.503 41.0799 261.246 41.0799H214.703C211.674 41.0799 209.934 42.596 209.484 45.6281L207.273 59.3958C207.232 59.6007 207.212 59.7851 207.212 59.949V60.4407C207.212 62.7763 208.501 63.944 211.08 63.944H257.623C259.342 63.944 260.079 64.8045 259.834 66.5255L259.035 71.4425C258.79 73.1635 257.807 74.0239 256.088 74.0239H206.352C202.75 74.0239 200.007 73.1635 198.124 71.4425C196.282 69.7215 195.361 67.2835 195.361 64.1284C195.361 63.104 195.443 62.1206 195.607 61.1782L198.308 43.8457Z" fill="white"/>
<path fill-rule="evenodd" clip-rule="evenodd" d="M44.7211 90.7743C44.0252 92.3723 43.5136 94.1752 43.1861 96.183L40.4844 113.515C40.3206 114.458 40.2388 115.441 40.2388 116.466C40.2388 119.621 41.1598 122.059 43.0019 123.78C44.8849 125.501 47.6275 126.361 51.2298 126.361H95.0711C97.4453 126.361 99.4921 126.074 101.211 125.501C102.931 124.927 104.363 124.087 105.51 122.981C106.697 121.874 107.638 120.543 108.334 118.986C109.03 117.388 109.542 115.564 109.869 113.515L112.571 96.183C112.735 95.2406 112.816 94.2572 112.816 93.2328C112.816 90.0777 111.875 87.6397 109.992 85.9187C108.15 84.1978 105.428 83.3373 101.825 83.3373H57.9841C55.6098 83.3373 53.5631 83.6241 51.8438 84.1978C50.1246 84.7714 48.6714 85.6114 47.4843 86.7177C46.3381 87.8241 45.417 89.1763 44.7211 90.7743ZM54.3613 97.9654C54.8116 94.9333 56.5513 93.4172 59.5805 93.4172H97.036C99.6558 93.4172 100.966 94.6055 100.966 96.982V97.4737C100.966 97.5966 100.945 97.7605 100.904 97.9654L98.6938 111.733C98.4892 113.208 97.9161 114.335 96.9746 115.114C96.074 115.892 94.8869 116.281 93.4132 116.281H55.9578C53.3789 116.281 52.0894 115.114 52.0894 112.778V112.286C52.0894 112.122 52.1099 111.938 52.1508 111.733L54.3613 97.9654Z" fill="white"/>
<path d="M135.681 93.4172C132.652 93.4172 130.912 94.9333 130.462 97.9654L126.348 123.78C126.102 125.501 125.12 126.361 123.401 126.361H117.138C115.418 126.361 114.681 125.501 114.927 123.78L119.287 96.183C119.614 94.1752 120.126 92.3723 120.822 90.7743C121.518 89.1763 122.439 87.8241 123.585 86.7177C124.772 85.6114 126.225 84.7714 127.944 84.1978C129.664 83.6241 131.71 83.3373 134.085 83.3373H174.622C178.224 83.3373 180.946 84.1978 182.788 85.9187C184.671 87.6397 185.613 90.0777 185.613 93.2328C185.613 94.2572 185.531 95.2406 185.367 96.183L181.008 123.78C180.762 125.501 179.78 126.361 178.06 126.361H171.797C170.078 126.361 169.341 125.501 169.587 123.78L173.701 97.9654C173.742 97.7605 173.762 97.5966 173.762 97.4737V96.982C173.762 94.6055 172.452 93.4172 169.833 93.4172H135.681Z" fill="white"/>
<path d="M2.71708 143.693L2.72242 143.661L2.72692 143.628L20.8087 14.0833C21.1177 12.112 21.5916 10.3911 22.2115 8.90307C22.8088 7.46955 23.5739 6.31072 24.4868 5.38542C25.4103 4.49043 26.5661 3.78086 28.0038 3.27943C29.429 2.78239 31.2279 2.5 33.4536 2.5H433.771C437.062 2.5 439.112 3.31942 440.368 4.54524L440.378 4.55483L440.387 4.56431C441.694 5.81201 442.5 7.68796 442.5 10.567C442.5 11.5333 442.426 12.4459 442.283 13.3074L442.278 13.3395L442.273 13.3717L424.193 142.905C424.192 142.91 424.191 142.915 424.191 142.921C423.882 144.934 423.409 146.671 422.793 148.151C422.204 149.527 421.425 150.666 420.466 151.599L420.45 151.615L420.435 151.63C419.562 152.511 418.436 153.218 416.996 153.721C415.571 154.218 413.772 154.5 411.546 154.5H11.2288C7.95055 154.5 5.86532 153.686 4.55971 152.445C3.29106 151.201 2.5 149.32 2.5 146.433C2.5 145.467 2.57387 144.554 2.71708 143.693Z" stroke="white" stroke-width="5"/>
</svg>
