<svg width="367" height="234" viewBox="0 0 367 234" fill="none" xmlns="http://www.w3.org/2000/svg">
<path fill-rule="evenodd" clip-rule="evenodd" d="M43.2129 15.279L10.1204 221.893L10.1156 221.922C10.0446 222.35 10 222.849 10 223.433C10 223.624 10.0067 223.787 10.0169 223.924C10.3031 223.965 10.7003 224 11.2288 224H318.546C320.173 224 321.095 223.789 321.526 223.639C321.785 223.549 321.935 223.468 322.01 223.423C322.043 223.402 322.066 223.386 322.081 223.374C322.099 223.36 322.106 223.353 322.108 223.351L322.17 223.288L322.233 223.227C322.433 223.032 322.662 222.741 322.884 222.232C323.223 221.408 323.549 220.28 323.779 218.771L323.785 218.736L356.88 12.1067L356.884 12.0777C356.955 11.6505 357 11.1507 357 10.567C357 10.3733 356.993 10.2108 356.982 10.0766C356.702 10.0353 356.306 10 355.771 10H48.4536C46.8273 10 45.905 10.2107 45.4736 10.3611C45.0606 10.5052 44.8575 10.642 44.7593 10.7236C44.5952 10.9071 44.369 11.225 44.1347 11.7874C43.7796 12.6399 43.4478 13.7733 43.216 15.2591L43.2129 15.279ZM37.7267 3.60983C38.9395 2.42843 40.4241 1.53145 42.1806 0.918872C43.937 0.306295 46.028 0 48.4536 0H355.771C359.451 0 362.232 0.918868 364.114 2.7566C366.038 4.59433 367 7.19778 367 10.567C367 11.6608 366.916 12.711 366.749 13.7173L333.664 220.283C333.33 222.47 332.807 224.418 332.096 226.124C331.385 227.787 330.423 229.209 329.211 230.39C328.04 231.572 326.576 232.469 324.819 233.081C323.063 233.694 320.972 234 318.546 234H11.2288C7.54858 234 4.74662 233.081 2.82288 231.243C0.940959 229.406 0 226.802 0 223.433C0 222.339 0.0836405 221.289 0.250922 220.283L33.3355 13.7173C33.6701 11.5733 34.1929 9.64809 34.9038 7.94163C35.6148 6.23516 36.5557 4.79123 37.7267 3.60983Z" fill="#3498DB"/>
<path d="M147.589 46.0829C147.091 49.4648 146.171 52.1652 144.828 54.1843C143.486 56.1529 141.546 57.5914 139.01 58.5C140.85 59.2067 142.267 60.2919 143.262 61.7557C144.257 63.2195 144.754 65.1376 144.754 67.51C144.754 68.0148 144.729 68.5448 144.679 69.1C144.63 69.6552 144.555 70.2105 144.455 70.7657L144.381 71.2957C144.033 73.8195 143.436 75.9648 142.591 77.7314C141.745 79.4476 140.601 80.8609 139.159 81.9714C137.717 83.0314 135.951 83.8138 133.863 84.3186C131.774 84.7729 129.287 85 126.403 85H63.7414C61.6527 85 60.7576 83.94 61.0559 81.82L68.3665 35.18C68.6648 33.06 69.8584 32 71.9471 32H133.863C138.289 32 141.72 32.7824 144.157 34.3471C146.644 35.9119 147.887 38.5871 147.887 42.3729C147.887 43.3824 147.812 44.4424 147.663 45.5529L147.589 46.0829ZM77.6165 64.33L76.3483 72.5829H125.955C127.398 72.5829 128.541 72.28 129.387 71.6743C130.232 71.0181 130.754 70.0086 130.953 68.6457L131.028 68.1157C131.078 67.9138 131.103 67.6362 131.103 67.2829C131.103 65.3143 129.834 64.33 127.298 64.33H77.6165ZM79.4814 52.67H128.343C131.277 52.67 132.918 51.4081 133.266 48.8843L133.341 48.3543C133.39 48.2029 133.415 48.0262 133.415 47.8243C133.415 47.6224 133.415 47.4457 133.415 47.2943C133.415 45.3762 132.147 44.4171 129.611 44.4171H80.7496L79.4814 52.67Z" fill="#3498DB"/>
<path d="M154.409 47.8243C154.807 45.351 155.428 43.13 156.274 41.1614C157.119 39.1929 158.238 37.5271 159.631 36.1643C161.073 34.8014 162.838 33.7667 164.927 33.06C167.016 32.3533 169.502 32 172.387 32H225.649C230.026 32 233.333 33.06 235.571 35.18C237.858 37.3 239.002 40.3033 239.002 44.19C239.002 45.4519 238.903 46.6633 238.704 47.8243L235.421 69.1757C235.024 71.6995 234.402 73.9457 233.556 75.9143C232.711 77.8324 231.567 79.4729 230.125 80.8357C228.732 82.1986 226.992 83.2333 224.903 83.94C222.814 84.6467 220.328 85 217.443 85H164.181C159.805 85 156.473 83.94 154.185 81.82C151.947 79.7 150.828 76.6967 150.828 72.81C150.828 71.5481 150.928 70.3367 151.127 69.1757L154.409 47.8243ZM174.326 44.4171C170.646 44.4171 168.533 46.2848 167.986 50.02L165.3 66.98C165.25 67.2324 165.226 67.4595 165.226 67.6614C165.226 67.8633 165.226 68.0652 165.226 68.2671C165.226 71.1443 166.792 72.5829 169.925 72.5829H215.429C217.22 72.5829 218.662 72.1033 219.756 71.1443C220.9 70.1852 221.596 68.7971 221.845 66.98L224.53 50.02C224.58 49.7676 224.605 49.5657 224.605 49.4143C224.605 49.2124 224.605 49.0105 224.605 48.8086C224.605 45.881 223.013 44.4171 219.831 44.4171H174.326Z" fill="#3498DB"/>
<path d="M281.809 65.0871L256.744 83.1071C255.7 83.8643 254.83 84.369 254.134 84.6214C253.437 84.8738 252.418 85 251.075 85H238.394C237.946 85 237.598 84.8738 237.349 84.6214C237.051 84.369 236.877 84.0662 236.827 83.7129C236.728 83.309 236.752 82.9052 236.902 82.5014C237.051 82.0471 237.349 81.6686 237.797 81.3657L270.545 58.3486L245.406 35.6343C245.058 35.3314 244.834 34.9781 244.734 34.5743C244.685 34.1705 244.734 33.7919 244.884 33.4386C245.033 33.0348 245.257 32.7067 245.555 32.4543C245.853 32.1514 246.226 32 246.674 32H257.863C259.206 32 260.251 32.1262 260.997 32.3786C261.792 32.631 262.588 33.1357 263.384 33.8929L282.406 51.61L306.948 33.8929C307.495 33.5395 307.968 33.2367 308.366 32.9843C308.813 32.7319 309.236 32.53 309.634 32.3786C310.032 32.2271 310.454 32.1262 310.902 32.0757C311.399 32.0252 311.996 32 312.692 32H325.374C325.821 32 326.169 32.1514 326.418 32.4543C326.717 32.7067 326.891 33.0348 326.94 33.4386C327.04 33.7919 327.015 34.1705 326.866 34.5743C326.717 34.9781 326.418 35.3314 325.971 35.6343L293.745 58.3486L319.257 81.3657C319.605 81.6686 319.804 82.0471 319.854 82.5014C319.953 82.9052 319.928 83.309 319.779 83.7129C319.63 84.0662 319.406 84.369 319.108 84.6214C318.809 84.8738 318.436 85 317.989 85H306.799C305.456 85 304.387 84.8738 303.591 84.6214C302.845 84.369 302.05 83.8643 301.204 83.1071L281.809 65.0871Z" fill="#3498DB"/>
<path d="M138.089 105.083C137.591 108.465 136.671 111.165 135.328 113.184C133.986 115.153 132.046 116.591 129.51 117.5C131.35 118.207 132.767 119.292 133.762 120.756C134.757 122.22 135.254 124.138 135.254 126.51C135.254 127.015 135.229 127.545 135.179 128.1C135.13 128.655 135.055 129.21 134.955 129.766L134.881 130.296C134.533 132.82 133.936 134.965 133.091 136.731C132.245 138.448 131.101 139.861 129.659 140.971C128.217 142.031 126.451 142.814 124.363 143.319C122.274 143.773 119.787 144 116.903 144H54.2414C52.1527 144 51.2576 142.94 51.5559 140.82L58.8665 94.18C59.1648 92.06 60.3584 91 62.4471 91H124.363C128.789 91 132.22 91.7824 134.657 93.3471C137.144 94.9119 138.387 97.5871 138.387 101.373C138.387 102.382 138.312 103.442 138.163 104.553L138.089 105.083ZM68.1165 123.33L66.8483 131.583H116.455C117.898 131.583 119.041 131.28 119.887 130.674C120.732 130.018 121.254 129.009 121.453 127.646L121.528 127.116C121.578 126.914 121.603 126.636 121.603 126.283C121.603 124.314 120.334 123.33 117.798 123.33H68.1165ZM69.9814 111.67H118.843C121.777 111.67 123.418 110.408 123.766 107.884L123.841 107.354C123.89 107.203 123.915 107.026 123.915 106.824C123.915 106.622 123.915 106.446 123.915 106.294C123.915 104.376 122.647 103.417 120.111 103.417H71.2496L69.9814 111.67Z" fill="#3498DB"/>
<path d="M144.909 106.824C145.307 104.351 145.928 102.13 146.774 100.161C147.619 98.1929 148.738 96.5271 150.131 95.1643C151.573 93.8014 153.338 92.7667 155.427 92.06C157.516 91.3533 160.002 91 162.887 91H216.149C220.526 91 223.833 92.06 226.071 94.18C228.358 96.3 229.502 99.3033 229.502 103.19C229.502 104.452 229.403 105.663 229.204 106.824L225.921 128.176C225.524 130.7 224.902 132.946 224.056 134.914C223.211 136.832 222.067 138.473 220.625 139.836C219.232 141.199 217.492 142.233 215.403 142.94C213.314 143.647 210.828 144 207.943 144H154.681C150.305 144 146.973 142.94 144.685 140.82C142.447 138.7 141.328 135.697 141.328 131.81C141.328 130.548 141.428 129.337 141.627 128.176L144.909 106.824ZM164.826 103.417C161.146 103.417 159.033 105.285 158.486 109.02L155.8 125.98C155.75 126.232 155.726 126.46 155.726 126.661C155.726 126.863 155.726 127.065 155.726 127.267C155.726 130.144 157.292 131.583 160.425 131.583H205.929C207.72 131.583 209.162 131.103 210.256 130.144C211.4 129.185 212.096 127.797 212.345 125.98L215.03 109.02C215.08 108.768 215.105 108.566 215.105 108.414C215.105 108.212 215.105 108.01 215.105 107.809C215.105 104.881 213.513 103.417 210.331 103.417H164.826Z" fill="#3498DB"/>
<path d="M272.309 124.087L247.244 142.107C246.2 142.864 245.33 143.369 244.634 143.621C243.937 143.874 242.918 144 241.575 144H228.894C228.446 144 228.098 143.874 227.849 143.621C227.551 143.369 227.377 143.066 227.327 142.713C227.228 142.309 227.252 141.905 227.402 141.501C227.551 141.047 227.849 140.669 228.297 140.366L261.045 117.349L235.906 94.6343C235.558 94.3314 235.334 93.9781 235.234 93.5743C235.185 93.1705 235.234 92.7919 235.384 92.4386C235.533 92.0348 235.757 91.7067 236.055 91.4543C236.353 91.1514 236.726 91 237.174 91H248.363C249.706 91 250.751 91.1262 251.497 91.3786C252.292 91.631 253.088 92.1357 253.884 92.8929L272.906 110.61L297.448 92.8929C297.995 92.5395 298.468 92.2367 298.866 91.9843C299.313 91.7319 299.736 91.53 300.134 91.3786C300.532 91.2271 300.954 91.1262 301.402 91.0757C301.899 91.0252 302.496 91 303.192 91H315.874C316.321 91 316.669 91.1514 316.918 91.4543C317.217 91.7067 317.391 92.0348 317.44 92.4386C317.54 92.7919 317.515 93.1705 317.366 93.5743C317.217 93.9781 316.918 94.3314 316.471 94.6343L284.245 117.349L309.757 140.366C310.105 140.669 310.304 141.047 310.354 141.501C310.453 141.905 310.428 142.309 310.279 142.713C310.13 143.066 309.906 143.369 309.608 143.621C309.309 143.874 308.936 144 308.489 144H297.299C295.956 144 294.887 143.874 294.091 143.621C293.345 143.369 292.55 142.864 291.704 142.107L272.309 124.087Z" fill="#3498DB"/>
<path d="M128.589 164.083C128.091 167.465 127.171 170.165 125.828 172.184C124.486 174.153 122.546 175.591 120.01 176.5C121.85 177.207 123.267 178.292 124.262 179.756C125.257 181.22 125.754 183.138 125.754 185.51C125.754 186.015 125.729 186.545 125.679 187.1C125.63 187.655 125.555 188.21 125.455 188.766L125.381 189.296C125.033 191.82 124.436 193.965 123.591 195.731C122.745 197.448 121.601 198.861 120.159 199.971C118.717 201.031 116.951 201.814 114.863 202.319C112.774 202.773 110.287 203 107.403 203H44.7414C42.6527 203 41.7576 201.94 42.0559 199.82L49.3665 153.18C49.6648 151.06 50.8584 150 52.9471 150H114.863C119.289 150 122.72 150.782 125.157 152.347C127.644 153.912 128.887 156.587 128.887 160.373C128.887 161.382 128.812 162.442 128.663 163.553L128.589 164.083ZM58.6165 182.33L57.3483 190.583H106.955C108.398 190.583 109.541 190.28 110.387 189.674C111.232 189.018 111.754 188.009 111.953 186.646L112.028 186.116C112.078 185.914 112.103 185.636 112.103 185.283C112.103 183.314 110.834 182.33 108.298 182.33H58.6165ZM60.4814 170.67H109.343C112.277 170.67 113.918 169.408 114.266 166.884L114.341 166.354C114.39 166.203 114.415 166.026 114.415 165.824C114.415 165.622 114.415 165.446 114.415 165.294C114.415 163.376 113.147 162.417 110.611 162.417H61.7496L60.4814 170.67Z" fill="#3498DB"/>
<path d="M135.409 165.824C135.807 163.351 136.428 161.13 137.274 159.161C138.119 157.193 139.238 155.527 140.631 154.164C142.073 152.801 143.838 151.767 145.927 151.06C148.016 150.353 150.502 150 153.387 150H206.649C211.026 150 214.333 151.06 216.571 153.18C218.858 155.3 220.002 158.303 220.002 162.19C220.002 163.452 219.903 164.663 219.704 165.824L216.421 187.176C216.024 189.7 215.402 191.946 214.556 193.914C213.711 195.832 212.567 197.473 211.125 198.836C209.732 200.199 207.992 201.233 205.903 201.94C203.814 202.647 201.328 203 198.443 203H145.181C140.805 203 137.473 201.94 135.185 199.82C132.947 197.7 131.828 194.697 131.828 190.81C131.828 189.548 131.928 188.337 132.127 187.176L135.409 165.824ZM155.326 162.417C151.646 162.417 149.533 164.285 148.986 168.02L146.3 184.98C146.25 185.232 146.226 185.46 146.226 185.661C146.226 185.863 146.226 186.065 146.226 186.267C146.226 189.144 147.792 190.583 150.925 190.583H196.429C198.22 190.583 199.662 190.103 200.756 189.144C201.9 188.185 202.596 186.797 202.845 184.98L205.53 168.02C205.58 167.768 205.605 167.566 205.605 167.414C205.605 167.212 205.605 167.01 205.605 166.809C205.605 163.881 204.013 162.417 200.831 162.417H155.326Z" fill="#3498DB"/>
<path d="M262.809 183.087L237.744 201.107C236.7 201.864 235.83 202.369 235.134 202.621C234.437 202.874 233.418 203 232.075 203H219.394C218.946 203 218.598 202.874 218.349 202.621C218.051 202.369 217.877 202.066 217.827 201.713C217.728 201.309 217.752 200.905 217.902 200.501C218.051 200.047 218.349 199.669 218.797 199.366L251.545 176.349L226.406 153.634C226.058 153.331 225.834 152.978 225.734 152.574C225.685 152.17 225.734 151.792 225.884 151.439C226.033 151.035 226.257 150.707 226.555 150.454C226.853 150.151 227.226 150 227.674 150H238.863C240.206 150 241.251 150.126 241.997 150.379C242.792 150.631 243.588 151.136 244.384 151.893L263.406 169.61L287.948 151.893C288.495 151.54 288.968 151.237 289.366 150.984C289.813 150.732 290.236 150.53 290.634 150.379C291.032 150.227 291.454 150.126 291.902 150.076C292.399 150.025 292.996 150 293.692 150H306.374C306.821 150 307.169 150.151 307.418 150.454C307.717 150.707 307.891 151.035 307.94 151.439C308.04 151.792 308.015 152.17 307.866 152.574C307.717 152.978 307.418 153.331 306.971 153.634L274.745 176.349L300.257 199.366C300.605 199.669 300.804 200.047 300.854 200.501C300.953 200.905 300.928 201.309 300.779 201.713C300.63 202.066 300.406 202.369 300.108 202.621C299.809 202.874 299.436 203 298.989 203H287.799C286.456 203 285.387 202.874 284.591 202.621C283.845 202.369 283.05 201.864 282.204 201.107L262.809 183.087Z" fill="#3498DB"/>
</svg>
