<svg width="132" height="49" viewBox="0 0 132 49" fill="none" xmlns="http://www.w3.org/2000/svg">
<path d="M124.234 1.9304C124.523 0.86427 125.652 0 126.757 0H129.757C130.861 0 131.523 0.864269 131.234 1.9304L119.204 46.3296C118.915 47.3957 117.786 48.26 116.681 48.26H113.681C112.576 48.26 111.915 47.3957 112.204 46.3296L124.234 1.9304Z" fill="#009432"/>
<path d="M115.158 1.9304C115.447 0.86427 116.577 0 117.681 0H120.681C121.786 0 122.447 0.864269 122.158 1.9304L110.128 46.3296C109.84 47.3957 108.71 48.26 107.605 48.26H104.605C103.501 48.26 102.84 47.3957 103.128 46.3296L115.158 1.9304Z" fill="#009432"/>
<path d="M106.082 1.9304C106.371 0.86427 107.501 0 108.605 0H111.605C112.71 0 113.371 0.864269 113.082 1.9304L101.053 46.3296C100.764 47.3957 99.6343 48.26 98.5297 48.26H95.5297C94.4251 48.26 93.7639 47.3957 94.0527 46.3296L106.082 1.9304Z" fill="#009432"/>
<path d="M97.0068 1.9304C97.2956 0.86427 98.4252 0 99.5298 0H102.53C103.634 0 104.296 0.864269 104.007 1.9304L91.977 46.3296C91.6882 47.3957 90.5586 48.26 89.454 48.26H86.454C85.3494 48.26 84.6882 47.3957 84.977 46.3296L97.0068 1.9304Z" fill="#009432"/>
<path d="M87.9311 1.9304C88.2199 0.86427 89.3495 0 90.4541 0H93.4541C94.5587 0 95.2199 0.864269 94.9311 1.9304L82.9014 46.3296C82.6125 47.3957 81.4829 48.26 80.3783 48.26H77.3783C76.2738 48.26 75.6125 47.3957 75.9014 46.3296L87.9311 1.9304Z" fill="#009432"/>
<path d="M78.8554 1.9304C79.1442 0.86427 80.2738 0 81.3784 0H84.3784C85.483 0 86.1442 0.864269 85.8554 1.9304L73.8257 46.3296C73.5368 47.3957 72.4072 48.26 71.3026 48.26H68.3026C67.1981 48.26 66.5368 47.3957 66.8257 46.3296L78.8554 1.9304Z" fill="#009432"/>
<path d="M69.7797 1.9304C70.0686 0.86427 71.1982 0 72.3027 0H75.3027C76.4073 0 77.0686 0.864269 76.7797 1.9304L64.75 46.3296C64.4611 47.3957 63.3315 48.26 62.227 48.26H59.227C58.1224 48.26 57.4611 47.3957 57.75 46.3296L69.7797 1.9304Z" fill="#009432"/>
<path d="M60.704 1.9304C60.9929 0.86427 62.1225 0 63.2271 0H66.2271C67.3316 0 67.9929 0.864269 67.704 1.9304L55.6743 46.3296C55.3854 47.3957 54.2558 48.26 53.1513 48.26H50.1513C49.0467 48.26 48.3854 47.3957 48.6743 46.3296L60.704 1.9304Z" fill="#009432"/>
<path d="M51.6283 1.9304C51.9172 0.86427 53.0468 0 54.1514 0H57.1514C58.2559 0 58.9172 0.864269 58.6283 1.9304L46.5986 46.3296C46.3098 47.3957 45.1802 48.26 44.0756 48.26H41.0756C39.971 48.26 39.3098 47.3957 39.5986 46.3296L51.6283 1.9304Z" fill="#009432"/>
<path d="M42.5527 1.9304C42.8415 0.86427 43.9711 0 45.0757 0H48.0757C49.1803 0 49.8415 0.864269 49.5527 1.9304L37.5229 46.3296C37.2341 47.3957 36.1045 48.26 34.9999 48.26H31.9999C30.8953 48.26 30.2341 47.3957 30.5229 46.3296L42.5527 1.9304Z" fill="#009432"/>
<path fill-rule="evenodd" clip-rule="evenodd" d="M27.9444 17.9154C27.9322 16.4551 27.9126 15.2899 27.8981 15.1629C27.7985 14.294 27.5158 13.493 27.1222 12.7162C26.7467 12.0704 26.0105 11.0861 25.3008 10.429C24.6104 9.85352 23.7693 9.14114 22.6111 8.42223L22.1042 8.09004C21.5268 7.71171 21.2986 7.75641 21.1264 8.28154C21.0685 8.45829 21.084 8.57674 21.1859 8.7367C21.2377 8.81801 21.6938 9.27904 21.7946 9.35207C22.6803 10.1859 23.7879 11.603 23.7879 11.603C23.7879 11.603 25.294 13.8738 25.0058 14.1764C24.9719 14.2119 24.8613 14.3766 24.8263 14.4133C24.3809 15.1672 24.038 16.786 24.2922 17.2064C24.5878 17.6955 25.2351 18.1112 25.7999 18.1112C25.8807 18.1112 25.9316 18.4904 25.9316 18.4904C25.9316 18.4904 26.4093 32.1858 26.4093 33.1706C26.4093 34.1554 25.7184 35.0064 24.5491 35.0738C23.4111 35.1394 22.5096 34.3572 22.5096 33.3174C22.5096 33.3174 22.4883 26.2786 22.4243 21.769C22.4109 20.8201 21.8221 20.1573 21.0502 19.7625C20.431 19.4458 19.7512 19.4451 19.069 19.4202C19.0715 20.3627 18.9425 8.32845 18.9425 7.60038C18.9425 6.87232 17.988 5.98204 17.0998 6.01904C16.2116 6.05604 3.67805 5.99953 3.59163 6C2.43406 6.0064 1.54866 6.73329 1.54866 7.87351L1.48246 38.1336C0.298574 38.5318 -0.024824 39.2057 0.00145439 41H20.726C20.738 39.7648 20.68 38.3693 19.069 38.1129L19.057 22.1605L20.2581 22.1488C20.2581 22.1488 20.2061 30.6737 20.5438 33.9596C20.997 35.7649 22.4845 37.0784 24.3882 37.0803C25.9367 37.0818 28 35.6584 28 33.4713C28 33.4713 27.979 22.0759 27.9444 17.9154ZM4.5299 17.8889C4.65112 17.9264 15.8842 17.9264 16.0054 17.8889C16.6708 17.9008 16.9702 17.5347 16.9694 16.8494C16.9694 16.8494 16.9911 10.883 16.9911 10.3429C16.9911 9.80285 16.815 9.28053 16.0746 9.29159C15.3342 9.30265 4.58698 9.2404 4.43214 9.30133C3.90095 9.31243 3.57477 9.65958 3.56963 10.259L3.54425 16.8267C3.53401 17.5595 3.82729 17.9353 4.5299 17.8889ZM26.7252 15.9092C26.7272 15.2351 26.5786 14.899 26.1896 14.6982C26.0119 14.6064 25.7682 14.6113 25.5924 14.71C25.2551 14.8995 25.1502 15.3521 25.0559 15.7592C25.0261 15.8878 24.9974 16.0118 24.9627 16.1216C24.823 16.5637 24.8453 16.7885 25.0496 16.9967C25.1966 17.1465 25.7091 17.3282 25.9847 17.3282C26.5231 17.3282 26.7221 16.9469 26.7252 15.9092Z" fill="#414141"/>
</svg>
