<svg width="352" height="141" viewBox="0 0 352 141" fill="none" xmlns="http://www.w3.org/2000/svg">
<path fill-rule="evenodd" clip-rule="evenodd" d="M28.2136 15.2746L10.1211 128.889L10.1156 128.922C10.0446 129.35 10 129.849 10 130.433C10 130.624 10.0067 130.787 10.0169 130.924C10.3031 130.965 10.7003 131 11.2288 131H318.546C320.173 131 321.095 130.789 321.526 130.639C321.785 130.549 321.935 130.468 322.01 130.423C322.08 130.379 322.105 130.354 322.108 130.351L322.17 130.288L322.233 130.227C322.433 130.032 322.662 129.741 322.884 129.232C323.223 128.408 323.549 127.28 323.779 125.771L323.784 125.741L341.879 12.1112L341.884 12.0777C341.955 11.6505 342 11.1507 342 10.567C342 10.3733 341.993 10.2108 341.982 10.0766C341.702 10.0353 341.306 10 340.771 10H33.4536C31.8273 10 30.905 10.2107 30.4736 10.3611C30.0606 10.5052 29.8575 10.642 29.7593 10.7236C29.5952 10.9071 29.369 11.225 29.1347 11.7874C28.7796 12.6399 28.4478 13.7733 28.216 15.2591L28.2136 15.2746ZM22.7267 3.60983C23.9395 2.42843 25.4241 1.53145 27.1806 0.918872C28.937 0.306295 31.028 0 33.4536 0H340.771C344.451 0 347.232 0.918868 349.114 2.7566C351.038 4.59433 352 7.19778 352 10.567C352 11.6608 351.916 12.711 351.749 13.7173L333.664 127.283C333.33 129.47 332.807 131.418 332.096 133.124C331.385 134.787 330.423 136.209 329.211 137.39C328.04 138.572 326.576 139.469 324.819 140.081C323.063 140.694 320.972 141 318.546 141H11.2288C7.54858 141 4.74662 140.081 2.82288 138.243C0.940959 136.406 0 133.802 0 130.433C0 129.339 0.0836405 128.289 0.250922 127.283L18.3355 13.7173C18.6701 11.5733 19.1929 9.64809 19.9038 7.94163C20.6148 6.23517 21.5557 4.79123 22.7267 3.60983Z" fill="#009432"/>
<path d="M49.3466 54.2886C49.9407 50.6486 50.8689 47.38 52.1313 44.4829C53.3937 41.5857 55.0645 39.1343 57.1438 37.1286C59.2972 35.1229 61.9334 33.6 65.0523 32.56C68.1711 31.52 71.8841 31 76.1911 31H168.086C171.205 31 172.541 32.56 172.096 35.68L170.648 44.5943C170.202 47.7143 168.383 49.2743 165.19 49.2743H79.0871C73.592 49.2743 70.436 52.0229 69.6192 57.52L65.6092 82.48C65.535 82.8514 65.4978 83.1857 65.4978 83.4829C65.4978 83.78 65.4978 84.0771 65.4978 84.3743C65.4978 88.6086 67.837 90.7257 72.5153 90.7257H140.573C144.954 90.7257 147.405 88.8686 147.925 85.1543L149.039 78.58H120.969C117.85 78.58 116.513 77.02 116.959 73.9L118.184 66.1C118.704 62.98 120.523 61.42 123.642 61.42H167.752C170.871 61.42 172.17 62.98 171.65 66.1L168.086 89.0543C167.492 92.7686 166.527 95.8886 165.19 98.4143C163.927 100.94 162.182 102.983 159.955 104.543C157.727 106.103 155.016 107.254 151.823 107.997C148.704 108.666 144.992 109 140.685 109H63.9384C57.4037 109 52.4283 107.44 49.0124 104.32C45.6708 101.2 44 96.78 44 91.06C44 89.2029 44.1485 87.42 44.4456 85.7114L49.3466 54.2886Z" fill="#009432"/>
<path d="M183.686 54.2886C184.28 50.6486 185.209 47.38 186.471 44.4829C187.733 41.5857 189.404 39.1343 191.483 37.1286C193.637 35.1229 196.273 33.6 199.392 32.56C202.511 31.52 206.224 31 210.531 31H290.062C296.596 31 301.535 32.56 304.876 35.68C308.292 38.8 310 43.22 310 48.94C310 50.7971 309.851 52.58 309.554 54.2886L304.653 85.7114C304.059 89.4257 303.131 92.7314 301.869 95.6286C300.606 98.4514 298.898 100.866 296.745 102.871C294.666 104.877 292.067 106.4 288.948 107.44C285.829 108.48 282.116 109 277.809 109H198.278C191.743 109 186.768 107.44 183.352 104.32C180.011 101.2 178.34 96.78 178.34 91.06C178.34 89.2029 178.488 87.42 178.785 85.7114L183.686 54.2886ZM213.427 49.2743C207.932 49.2743 204.776 52.0229 203.959 57.52L199.949 82.48C199.875 82.8514 199.838 83.1857 199.838 83.4829C199.838 83.78 199.838 84.0771 199.838 84.3743C199.838 88.6086 202.177 90.7257 206.855 90.7257H274.801C277.475 90.7257 279.628 90.02 281.262 88.6086C282.97 87.1971 284.01 85.1543 284.381 82.48L288.391 57.52C288.465 57.1486 288.502 56.8514 288.502 56.6286C288.502 56.3314 288.502 56.0343 288.502 55.7371C288.502 51.4286 286.126 49.2743 281.373 49.2743H213.427Z" fill="#009432"/>
</svg>
