<svg width="359" height="181" viewBox="0 0 359 181" fill="none" xmlns="http://www.w3.org/2000/svg">
<path fill-rule="evenodd" clip-rule="evenodd" d="M35.2105 15.2943L10.1179 168.909L10.1156 168.922C10.0446 169.35 10 169.849 10 170.433C10 170.624 10.0067 170.787 10.0169 170.924C10.3031 170.965 10.7003 171 11.2288 171H318.546C320.173 171 321.095 170.789 321.526 170.639C321.785 170.549 321.935 170.468 322.01 170.423C322.08 170.379 322.105 170.354 322.108 170.351L322.17 170.288L322.233 170.227C322.433 170.032 322.662 169.741 322.884 169.232C323.223 168.408 323.549 167.28 323.779 165.771L323.787 165.721L348.882 12.0914L348.884 12.0777C348.955 11.6505 349 11.1507 349 10.567C349 10.3733 348.993 10.2108 348.982 10.0766C348.702 10.0353 348.306 10 347.771 10H40.4536C38.8273 10 37.905 10.2107 37.4736 10.3611C37.0606 10.5052 36.8575 10.642 36.7593 10.7236C36.5952 10.9071 36.369 11.225 36.1347 11.7874C35.7796 12.6399 35.4478 13.7733 35.216 15.2591L35.2105 15.2943ZM29.7267 3.60983C30.9395 2.42843 32.4241 1.53145 34.1806 0.918872C35.937 0.306295 38.028 0 40.4536 0H347.771C351.451 0 354.232 0.918868 356.114 2.7566C358.038 4.59433 359 7.19778 359 10.567C359 11.6608 358.916 12.711 358.749 13.7173L333.664 167.283C333.33 169.47 332.807 171.418 332.096 173.124C331.385 174.787 330.423 176.209 329.211 177.39C328.04 178.572 326.576 179.469 324.819 180.081C323.063 180.694 320.972 181 318.546 181H11.2288C7.54858 181 4.74662 180.081 2.82288 178.243C0.940959 176.406 0 173.802 0 170.433C0 169.339 0.0836405 168.289 0.250922 167.283L25.3355 13.7173C25.6701 11.5733 26.1929 9.64809 26.9038 7.94163C27.6148 6.23516 28.5557 4.79123 29.7267 3.60983Z" fill="#C0392B"/>
<path d="M46.256 119.824C46.5546 117.995 47.0213 116.445 47.656 115.176C48.328 113.869 49.224 112.824 50.344 112.04C51.464 111.256 52.808 110.696 54.376 110.36C55.9813 109.987 57.8666 109.8 60.032 109.8H105.672C107.24 109.8 107.912 110.584 107.688 112.152L106.96 116.632C106.736 118.2 105.821 118.984 104.216 118.984H60.032C58.9493 118.984 58.1093 119.189 57.512 119.6C56.952 119.973 56.5786 120.645 56.392 121.616L56.28 122.176C56.2426 122.288 56.224 122.419 56.224 122.568C56.224 122.717 56.224 122.829 56.224 122.904C56.224 124.36 57.176 125.088 59.08 125.088H94.808C96.488 125.088 97.9813 125.237 99.288 125.536C100.632 125.797 101.771 126.245 102.704 126.88C103.637 127.477 104.347 128.28 104.832 129.288C105.355 130.259 105.616 131.453 105.616 132.872C105.616 133.581 105.56 134.328 105.448 135.112L104.832 138.976C104.533 140.843 104.048 142.411 103.376 143.68C102.741 144.949 101.864 145.976 100.744 146.76C99.624 147.544 98.2613 148.123 96.656 148.496C95.088 148.832 93.2213 149 91.056 149H44.856C43.288 149 42.616 148.216 42.84 146.648L43.568 142.168C43.792 140.6 44.688 139.816 46.256 139.816H91C92.0826 139.816 92.9413 139.592 93.576 139.144C94.2106 138.659 94.6026 137.912 94.752 136.904L94.808 136.512C94.8453 136.363 94.864 136.157 94.864 135.896C94.864 134.44 93.912 133.712 92.008 133.712H56.28C52.9573 133.712 50.3066 133.133 48.328 131.976C46.3866 130.819 45.416 128.821 45.416 125.984C45.416 125.611 45.4346 125.237 45.472 124.864C45.5093 124.491 45.5653 124.099 45.64 123.688L46.256 119.824Z" fill="#C0392B"/>
<path d="M142.083 146.648C141.859 148.216 140.963 149 139.395 149H133.683C132.115 149 131.443 148.216 131.667 146.648L136.035 118.984H112.683C111.153 118.984 110.499 118.2 110.723 116.632L111.451 112.152C111.675 110.584 112.571 109.8 114.139 109.8H171.315C172.883 109.8 173.555 110.584 173.331 112.152L172.603 116.632C172.379 118.2 171.465 118.984 169.859 118.984H146.451L142.083 146.648Z" fill="#C0392B"/>
<path d="M175.498 121.504C175.797 119.675 176.264 118.032 176.898 116.576C177.533 115.12 178.373 113.888 179.418 112.88C180.501 111.872 181.826 111.107 183.394 110.584C184.962 110.061 186.829 109.8 188.994 109.8H228.978C232.264 109.8 234.746 110.584 236.426 112.152C238.144 113.72 239.002 115.941 239.002 118.816C239.002 119.749 238.928 120.645 238.778 121.504L236.314 137.296C236.016 139.163 235.549 140.824 234.914 142.28C234.28 143.699 233.421 144.912 232.338 145.92C231.293 146.928 229.986 147.693 228.418 148.216C226.85 148.739 224.984 149 222.818 149H182.834C179.549 149 177.048 148.216 175.33 146.648C173.65 145.08 172.81 142.859 172.81 139.984C172.81 139.051 172.885 138.155 173.034 137.296L175.498 121.504ZM190.45 118.984C187.688 118.984 186.101 120.365 185.69 123.128L183.674 135.672C183.637 135.859 183.618 136.027 183.618 136.176C183.618 136.325 183.618 136.475 183.618 136.624C183.618 138.752 184.794 139.816 187.146 139.816H221.306C222.65 139.816 223.733 139.461 224.554 138.752C225.413 138.043 225.936 137.016 226.122 135.672L228.138 123.128C228.176 122.941 228.194 122.792 228.194 122.68C228.194 122.531 228.194 122.381 228.194 122.232C228.194 120.067 227 118.984 224.61 118.984H190.45Z" fill="#C0392B"/>
<path d="M255.991 118.984L254.647 127.608H290.039C292.429 127.608 293.847 126.376 294.295 123.912L294.519 122.68C294.557 122.493 294.575 122.344 294.575 122.232C294.575 122.083 294.575 121.933 294.575 121.784C294.575 119.917 293.511 118.984 291.383 118.984H255.991ZM295.303 109.8C298.589 109.8 301.071 110.584 302.751 112.152C304.469 113.72 305.327 115.941 305.327 118.816C305.327 119.749 305.253 120.645 305.103 121.504L304.543 125.088C304.245 126.955 303.778 128.616 303.143 130.072C302.509 131.491 301.65 132.704 300.567 133.712C299.522 134.72 298.215 135.485 296.647 136.008C295.079 136.531 293.213 136.792 291.047 136.792H253.191L251.623 146.648C251.399 148.216 250.503 149 248.935 149H243.223C241.655 149 240.983 148.216 241.207 146.648L246.695 112.152C246.919 110.584 247.815 109.8 249.383 109.8H295.303Z" fill="#C0392B"/>
<path d="M77.1167 48.7741L74.6585 64.5255H139.39C143.76 64.5255 146.355 62.2753 147.175 57.7749L147.584 55.5247C147.653 55.1838 147.687 54.911 147.687 54.7065C147.687 54.4337 147.687 54.161 147.687 53.8882C147.687 50.4788 145.741 48.7741 141.849 48.7741H77.1167ZM149.018 32C155.027 32 159.568 33.4319 162.641 36.2958C165.782 39.1597 167.352 43.2169 167.352 48.4673C167.352 50.172 167.215 51.8085 166.942 53.3768L165.918 59.9228C165.372 63.3322 164.518 66.3665 163.358 69.0259C162.197 71.617 160.626 73.8331 158.646 75.6741C156.734 77.5152 154.344 78.9131 151.476 79.8677C148.608 80.8223 145.194 81.2996 141.234 81.2996H71.9955L69.1276 99.3011C68.7179 102.165 67.0792 103.597 64.2113 103.597H53.7641C50.8962 103.597 49.6671 102.165 50.0768 99.3011L60.1143 36.2958C60.524 33.4319 62.1628 32 65.0307 32H149.018Z" fill="#C0392B"/>
<path d="M187.455 99.3011C187.045 102.165 185.407 103.597 182.539 103.597H172.092C169.224 103.597 167.995 102.165 168.404 99.3011L178.442 36.2958C178.852 33.4319 180.49 32 183.358 32H193.805C196.673 32 197.902 33.4319 197.493 36.2958L187.455 99.3011Z" fill="#C0392B"/>
<path d="M261.771 99.3011C261.361 102.165 259.722 103.597 256.854 103.597H246.407C243.539 103.597 242.31 102.165 242.72 99.3011L250.709 48.7741H207.998C205.199 48.7741 204.004 47.3422 204.413 44.4783L205.745 36.2958C206.155 33.4319 207.793 32 210.661 32H315.236C318.104 32 319.333 33.4319 318.923 36.2958L317.592 44.4783C317.182 47.3422 315.509 48.7741 312.573 48.7741H269.76L261.771 99.3011Z" fill="#C0392B"/>
</svg>
