<svg width="203" height="180" viewBox="0 0 203 180" fill="none" xmlns="http://www.w3.org/2000/svg">
<path fill-rule="evenodd" clip-rule="evenodd" d="M193 2H123C118.582 2 115 5.58173 115 10V170C115 174.418 118.582 178 123 178H193C197.418 178 201 174.418 201 170V10C201 5.58172 197.418 2 193 2ZM123 0C117.477 0 113 4.47716 113 10V170C113 175.523 117.477 180 123 180H193C198.523 180 203 175.523 203 170V10C203 4.47715 198.523 0 193 0H123ZM161 8C161 9.65685 159.657 11 158 11C156.343 11 155 9.65685 155 8C155 6.34315 156.343 5 158 5C159.657 5 161 6.34315 161 8ZM108 79L10 79C4.47715 79 0 83.4772 0 89L3.8147e-06 159C3.8147e-06 164.523 4.47716 169 10 169H108V167H10C5.58173 167 2 163.418 2 159L2 89C2 84.5817 5.58172 81 10 81H108V79ZM11 124C11 122.343 9.65686 121 8 121C6.34315 121 5 122.343 5 124C5 125.657 6.34315 127 8 127C9.65686 127 11 125.657 11 124ZM107.9 28.8453L96.8186 22.8532L97.0554 27.5532C69.757 29.9387 45.5417 47.0903 35.1069 72.6224L37.884 73.7574C47.8628 49.3409 71.028 32.8795 97.2065 30.5516L97.4523 35.4294L107.9 28.8453Z" fill="white"/>
</svg>
